HIERARCHY
ROOT joint_Root
{
	OFFSET 0.0 0.0 0.0
	CHANNELS 6 Xposition Yposition Zposition Zrotation Xrotation Yrotation 
	JOINT Hips
	{
		OFFSET -17.1583 93.1646 452.98
		CHANNELS 6 Xposition Yposition Zposition Zrotation Xrotation Yrotation 
		JOINT Spine
		{
			OFFSET 15.7357 0.0 0.0
			CHANNELS 6 Xposition Yposition Zposition Zrotation Xrotation Yrotation 
			JOINT Chest
			{
				OFFSET 8.98455 -0.406207 0.0
				CHANNELS 6 Xposition Yposition Zposition Zrotation Xrotation Yrotation 
				JOINT Neck
				{
					OFFSET 16.3773 0.0 0.0
					CHANNELS 6 Xposition Yposition Zposition Zrotation Xrotation Yrotation 
					JOINT Head
					{
						OFFSET 6.45672 0.0 0.0
						CHANNELS 6 Xposition Yposition Zposition Zrotation Xrotation Yrotation 
						End Site
						{
							OFFSET 0.0 0.0 0.0
						}
					}
				}
				JOINT Shoulder_L
				{
					OFFSET 12.9942 -0.242716 4.98039
					CHANNELS 6 Xposition Yposition Zposition Zrotation Xrotation Yrotation 
					JOINT UpperArm_L
					{
						OFFSET 5.34809 0.0 0.0
						CHANNELS 6 Xposition Yposition Zposition Zrotation Xrotation Yrotation 
						JOINT LowerArm_L
						{
							OFFSET 24.3286 1.87007e-05 0.0
							CHANNELS 6 Xposition Yposition Zposition Zrotation Xrotation Yrotation 
							JOINT Hand_L
							{
								OFFSET 22.2916 0.0 0.0
								CHANNELS 6 Xposition Yposition Zposition Zrotation Xrotation Yrotation 
								End Site
								{
									OFFSET 0.0 0.0 0.0
								}
							}
						}
					}
				}
				JOINT Shoulder_R
				{
					OFFSET 12.9945 -0.242716 -4.98039
					CHANNELS 6 Xposition Yposition Zposition Zrotation Xrotation Yrotation 
					JOINT UpperArm_R
					{
						OFFSET -5.34813 0.0 0.0
						CHANNELS 6 Xposition Yposition Zposition Zrotation Xrotation Yrotation 
						JOINT LowerArm_R
						{
							OFFSET -24.3289 0.000322201 0.0
							CHANNELS 6 Xposition Yposition Zposition Zrotation Xrotation Yrotation 
							JOINT Hand_R
							{
								OFFSET -22.2915 -0.000108084 0.0
								CHANNELS 6 Xposition Yposition Zposition Zrotation Xrotation Yrotation 
								End Site
								{
									OFFSET 0.0 0.0 0.0
								}
							}
						}
					}
				}
			}
		}
		JOINT UpperLeg_L
		{
			OFFSET -2.19248 -6.46944 0.0
			CHANNELS 6 Xposition Yposition Zposition Zrotation Xrotation Yrotation 
			JOINT LowerLeg_L
			{
				OFFSET 39.0811 0.0 -1.23785e-05
				CHANNELS 6 Xposition Yposition Zposition Zrotation Xrotation Yrotation 
				JOINT Foot_L
				{
					OFFSET 40.9854 0.0 -1.26872e-05
					CHANNELS 6 Xposition Yposition Zposition Zrotation Xrotation Yrotation 
					JOINT Toes_L
					{
						OFFSET 11.7543 0.0 0.0
						CHANNELS 6 Xposition Yposition Zposition Zrotation Xrotation Yrotation 
						End Site
						{
							OFFSET 0.0 0.0 0.0
						}
					}
				}
			}
		}
		JOINT UpperLeg_R
		{
			OFFSET -2.19251 6.46944 0.0
			CHANNELS 6 Xposition Yposition Zposition Zrotation Xrotation Yrotation 
			JOINT LowerLeg_R
			{
				OFFSET -39.0811 -0.00228153 -0.0401928
				CHANNELS 6 Xposition Yposition Zposition Zrotation Xrotation Yrotation 
				JOINT Foot_R
				{
					OFFSET -40.9854 0.0 0.0
					CHANNELS 6 Xposition Yposition Zposition Zrotation Xrotation Yrotation 
					JOINT Toes_R
					{
						OFFSET -11.7543 0.0 0.0
						CHANNELS 6 Xposition Yposition Zposition Zrotation Xrotation Yrotation 
						End Site
						{
							OFFSET 0.0 0.0 0.0
						}
					}
				}
			}
		}
	}
}
MOTION
Frames:	5
Frame Time:	0.0333333
0.000000 0.000000 0.000000 0.000000 0.000000 -0.000000 -1.239650 93.352800 -1.959360 87.884300 -2.003440 -0.147213 15.735700 0.000005 -0.000001 87.718100 88.529500 -86.227200 8.984550 -0.406207 -0.000000 -4.822060 -0.280670 2.972360 16.377300 -0.000001 -0.000001 4.335420 3.103100 -2.394300 6.456720 -0.000001 -0.000000 8.759830 3.033760 -0.374620 12.994200 -0.242716 4.980390 -92.380200 7.224600 -71.710200 5.348090 -0.000007 -0.000001 -75.151500 24.493300 5.082350 24.328600 0.000019 0.000005 16.048100 27.467700 -31.949300 22.291600 -0.000001 0.000005 -5.855530 5.068970 5.816100 12.994500 -0.242716 -4.980390 88.618200 4.576640 -73.180200 -5.348130 -0.000001 -0.000004 -71.926700 28.139500 0.609218 -24.328900 0.000322 -0.000009 4.199490 9.599820 -23.769000 -22.291500 -0.000108 -0.000004 -1.516490 5.273170 0.812434 -2.192480 -6.469440 -0.000000 -177.249000 -2.900820 -2.833940 39.081100 -0.000007 -0.000012 0.111767 -0.388122 16.064900 40.985400 -0.000006 -0.000013 1.971700 8.478820 -68.866200 11.754300 -0.000000 0.000003 0.000300 0.162405 -9.990000 -2.192510 6.469440 -0.000001 -175.892000 5.482860 -179.788000 -39.081100 -0.002282 -0.040193 0.015933 -0.065742 10.845800 -40.985400 0.000008 0.000006 -1.198480 4.547960 -66.592200 -11.754300 -0.000006 -0.000006 -0.010362 0.273991 -5.441100
0.000000 0.000000 0.000000 0.000000 0.000000 -0.000000 -1.242440 93.365900 -2.021510 87.895600 -1.946150 -0.202950 15.735700 0.000005 -0.000001 87.050100 88.506900 -85.551700 8.984550 -0.406207 -0.000000 -4.777950 -0.317464 2.985930 16.377300 -0.000001 -0.000001 4.180110 3.073440 -2.320190 6.456720 -0.000001 -0.000000 8.574230 3.094660 -0.317306 12.994200 -0.242716 4.980390 -92.373400 7.179110 -71.651700 5.348090 -0.000007 -0.000001 -74.930600 23.881300 5.092640 24.328600 0.000019 0.000005 16.539700 27.423800 -32.813200 22.291600 -0.000001 0.000005 -5.917260 5.069340 5.807750 12.994500 -0.242716 -4.980390 88.619100 4.548680 -73.093000 -5.348130 -0.000001 -0.000004 -71.565400 26.848800 0.879566 -24.328900 0.000322 -0.000009 4.426000 9.544570 -25.028400 -22.291500 -0.000108 -0.000004 -1.491350 5.268760 0.931821 -2.192480 -6.469440 -0.000000 -177.265000 -2.919820 -2.911920 39.081100 -0.000007 -0.000012 0.112325 -0.391246 16.018700 40.985400 -0.000006 -0.000013 1.964180 8.498900 -68.892700 11.754300 -0.000000 0.000003 0.000033 0.167075 -9.800390 -2.192510 6.469440 -0.000001 -175.879000 5.362260 -179.878000 -39.081100 -0.002282 -0.040193 0.015820 -0.065370 10.810500 -40.985400 0.000008 0.000006 -1.274410 4.374610 -66.559000 -11.754300 -0.000006 -0.000006 -0.010701 0.276475 -5.339500
0.000000 0.000000 0.000000 0.000000 0.000000 -0.000000 -1.275060 93.378400 -2.081080 87.850000 -1.849390 -0.281200 15.735700 0.000005 -0.000001 86.049700 88.482800 -84.520300 8.984550 -0.406207 -0.000000 -4.732100 -0.375550 3.045430 16.377300 -0.000001 -0.000001 4.034300 3.029210 -2.194760 6.456720 -0.000001 -0.000000 8.265740 3.111040 -0.293928 12.994200 -0.242716 4.980390 -92.388900 7.193560 -71.574300 5.348090 -0.000007 -0.000001 -74.582200 22.833200 5.136390 24.328600 0.000019 0.000005 17.144800 27.268800 -33.953500 22.291600 -0.000001 0.000005 -5.906960 5.070670 5.778050 12.994500 -0.242716 -4.980390 88.636000 4.467210 -73.002100 -5.348130 -0.000001 -0.000004 -71.155000 25.130700 1.190030 -24.328900 0.000322 -0.000009 4.777420 9.565120 -26.705400 -22.291500 -0.000108 -0.000004 -1.571740 5.259260 1.186880 -2.192480 -6.469440 -0.000000 -177.194000 -2.888410 -3.036180 39.081100 -0.000007 -0.000012 0.112227 -0.391259 16.004900 40.985400 -0.000006 -0.000013 1.945830 8.581400 -68.833900 11.754300 -0.000000 0.000003 0.000119 0.165602 -9.860190 -2.192510 6.469440 -0.000001 -175.801000 5.260220 -179.921000 -39.081100 -0.002282 -0.040193 0.013820 -0.055710 10.655900 -40.985400 0.000008 0.000006 -1.473920 4.213170 -66.388700 -11.754300 -0.000006 -0.000006 -0.010558 0.275432 -5.382180
0.000000 0.000000 0.000000 0.000000 0.000000 -0.000000 -1.295560 93.389500 -2.140760 87.869100 -1.731840 -0.352520 15.735700 0.000005 -0.000001 85.195300 88.452500 -83.668900 8.984550 -0.406207 -0.000000 -4.674410 -0.424609 3.037520 16.377300 -0.000001 -0.000001 3.877510 2.969690 -1.998270 6.456720 -0.000001 -0.000000 7.748170 3.118150 -0.105420 12.994200 -0.242716 4.980390 -92.401000 7.196050 -71.493200 5.348090 -0.000007 -0.000001 -74.125000 21.207700 5.267460 24.328600 0.000019 0.000005 17.945300 26.845000 -35.647200 22.291600 -0.000001 0.000005 -5.991750 5.064630 5.912860 12.994500 -0.242716 -4.980390 88.637100 4.420630 -72.846100 -5.348130 -0.000001 -0.000004 -70.605500 23.111500 1.563300 -24.328900 0.000322 -0.000009 5.228120 9.517190 -28.965400 -22.291500 -0.000108 -0.000004 -1.900330 5.247960 1.486650 -2.192480 -6.469440 -0.000000 -177.194000 -2.777700 -3.134190 39.081100 -0.000007 -0.000012 0.110164 -0.385869 15.934000 40.985400 -0.000006 -0.000013 1.915620 8.598400 -68.727100 11.754300 -0.000000 0.000003 0.000292 0.162554 -9.983950 -2.192510 6.469440 -0.000001 -175.789000 5.302630 179.995000 -39.081100 -0.002282 -0.040193 0.013648 -0.055185 10.582600 -40.985400 0.000008 0.000006 -1.458700 4.142000 -66.310400 -11.754300 -0.000006 -0.000006 -0.010546 0.275338 -5.385990
0.000000 0.000000 0.000000 0.000000 0.000000 -0.000000 -1.330260 93.398700 -2.198680 87.870000 -1.659500 -0.407661 15.735700 0.000005 -0.000001 85.217100 88.409200 -83.691700 8.984550 -0.406207 -0.000000 -4.587980 -0.429420 3.035840 16.377300 -0.000001 -0.000001 3.617070 2.886970 -1.719120 6.456720 -0.000001 -0.000000 7.093690 3.125450 0.189101 12.994200 -0.242716 4.980390 -92.446000 7.254900 -71.311100 5.348090 -0.000007 -0.000001 -73.485700 18.866800 5.385600 24.328600 0.000019 0.000005 19.168400 26.423000 -37.996000 22.291600 -0.000001 0.000005 -6.300150 5.059980 6.016580 12.994500 -0.242716 -4.980390 88.631500 4.390280 -72.667800 -5.348130 -0.000001 -0.000004 -69.930900 20.400800 2.070880 -24.328900 0.000322 -0.000009 5.941860 9.573010 -32.044300 -22.291500 -0.000108 -0.000004 -2.571470 5.229990 1.956030 -2.192480 -6.469440 -0.000000 -177.173000 -2.635780 -3.219210 39.081100 -0.000007 -0.000012 0.110232 -0.387005 15.898800 40.985400 -0.000006 -0.000013 1.874570 8.571450 -68.679700 11.754300 -0.000000 0.000003 0.000292 0.162558 -9.983810 -2.192510 6.469440 -0.000001 -175.749000 5.302610 179.940000 -39.081100 -0.002282 -0.040193 0.013281 -0.053632 10.502400 -40.985400 0.000008 0.000006 -1.434690 4.073490 -66.264200 -11.754300 -0.000006 -0.000006 -0.010778 0.277031 -5.316740
